<?xml version="1.0" encoding="UTF-8" standalone="no"?>
<!DOCTYPE svg PUBLIC "-//W3C//DTD SVG 1.1//EN" "http://www.w3.org/Graphics/SVG/1.1/DTD/svg11.dtd">
<svg version="1.1" xmlns="http://www.w3.org/2000/svg" xmlns:xlink="http://www.w3.org/1999/xlink" preserveAspectRatio="xMidYMid meet" viewBox="0 0 640 640" width="640" height="640"><defs><path d="M304.16 63.37L304.16 95.05L275.45 144.55L275.45 170.3L246.73 202.97L230.89 231.68L253.66 221.78L295.25 225.74L279.41 259.41L315.05 284.16L354.65 284.16L374.46 296.04L394.26 284.16L449.7 248.51L459.6 237.62L481.39 221.78L466.53 202.97L495.25 196.04L495.25 182.18L474.46 151.49L449.7 120.79L402.18 95.05L387.33 85.15L344.75 75.25L315.05 66.34L304.16 63.37Z" id="atynFpzrm"></path><path d="M149.7 346.53L185.35 356.44L216.04 346.53L251.68 352.48L287.33 340.59L279.41 320L332.87 324.75L370.5 324.75L373.47 304.95L328.91 296.04L287.33 289.11L255.64 259.41L263.56 241.58L216.04 241.58L181.39 234.65L146.73 253.47L115.05 282.18L81.39 286.14L94.26 320L143.76 337.62L149.7 346.53Z" id="bfrl5PWzG"></path><path d="M489.31 214.85L485.35 225.74L477.43 234.65L407.13 289.11L400.2 308.91L385.35 331.68L343.76 348.51L348.71 364.36L381.39 348.51L413.07 331.68L441.78 343.56L477.43 343.56L495.25 331.68L505.15 300L512.08 279.21L508.12 245.54L500.2 214.85L489.31 214.85Z" id="bAZDx6Fof"></path><path d="M253.66 393.07L267.52 416.83L281.39 451.49L291.29 484.16L327.92 498.02L360.59 501.98L392.28 484.16L427.92 462.38L459.6 439.6L474.46 410.89L493.27 381.19L493.27 350.5L455.64 361.39L418.02 356.44L365.54 377.23L331.88 377.23L291.29 361.39L261.58 377.23L253.66 393.07Z" id="cITfj7opn"></path><path d="M229.41 374.26L229.41 398.02L243.76 438.61L269.5 477.23L302.18 512.87L302.18 606.93L289.31 627.72L264.55 627.72L232.87 614.85L239.8 592.08L239.8 538.61L236.83 491.09L203.17 453.47L181.39 438.61L175.45 408.91L159.6 390.1L213.07 370.3L229.41 374.26Z" id="blpBUHeIU"></path><path d="M245.74 120.79L245.74 145.54L227.43 173.27L230.89 197.03L200.2 217.82L157.62 220.79L109.11 247.52L62.57 299.01L27.92 299.01L6.14 272.28L2.18 214.85L10.1 179.7L19.01 135.64L58.61 107.92L99.21 90.1L157.62 68.32L213.07 63.37L279.41 63.37L245.74 120.79Z" id="g8sEI2mQ0"></path></defs><g><g><g><g><use xlink:href="#atynFpzrm" opacity="1" fill-opacity="0" stroke="#000000" stroke-width="1" stroke-opacity="1"></use></g></g><g><g><use xlink:href="#bfrl5PWzG" opacity="1" fill-opacity="0" stroke="#000000" stroke-width="1" stroke-opacity="1"></use></g></g><g><g><use xlink:href="#bAZDx6Fof" opacity="1" fill-opacity="0" stroke="#000000" stroke-width="1" stroke-opacity="1"></use></g></g><g><g><use xlink:href="#cITfj7opn" opacity="1" fill-opacity="0" stroke="#000000" stroke-width="1" stroke-opacity="1"></use></g></g><g><g><use xlink:href="#blpBUHeIU" opacity="1" fill-opacity="0" stroke="#000000" stroke-width="1" stroke-opacity="1"></use></g></g><g><use xlink:href="#g8sEI2mQ0" opacity="1" fill="#ffffff" fill-opacity="1"></use><g><use xlink:href="#g8sEI2mQ0" opacity="1" fill-opacity="0" stroke="#000000" stroke-width="2" stroke-opacity="1"></use></g></g></g></g></svg>